<?xml version="1.0" encoding="UTF-8"?>
<svg width="920px" height="273px" viewBox="0 0 920 273" version="1.1" xmlns="http://www.w3.org/2000/svg" xmlns:xlink="http://www.w3.org/1999/xlink">
    <!-- Generator: Sketch 50.2 (55047) - http://www.bohemiancoding.com/sketch -->
    <title>Group</title>
    <desc>Created with Sketch.</desc>
    <defs></defs>
    <g id="Home" stroke="none" stroke-width="1" fill="none" fill-rule="evenodd">
        <g id="Desktop-HD" transform="translate(-260.000000, -127.000000)" fill="#000000">
            <g id="Group" transform="translate(260.000000, 127.000000)">
                <g id="International-Lockup" transform="translate(30.000000, 0.000000)">
                    <polygon id="Fill-4" points="0 0.00122338488 0 12.6938415 29.6318236 12.6938415 29.6318236 86.041882 0 86.041882 0 98.7406171 43.7410504 98.7406171 43.7410504 0.00122338488"></polygon>
                    <path d="M80.4170859,98.7393937 L67.0176034,98.7393937 L67.0176034,28.2112553 L80.4170859,28.2112553 L80.4170859,38.0839713 C84.6510776,31.7346038 91.705691,26.7982458 102.994296,26.7982458 C119.220519,26.7982458 128.38601,36.6770787 128.38601,51.4861527 L128.38601,98.7393937 L114.980409,98.7393937 L114.980409,54.3060549 C114.980409,44.4333389 110.752535,38.0839713 100.8773,38.0839713 L99.4639302,38.0839713 C89.5886952,38.0839713 80.4170859,45.8463484 80.4170859,59.2424128 L80.4170859,98.7393937 Z" id="Fill-5"></path>
                    <path d="M155.613268,88.7241534 L155.613268,39.7765243 L140.090672,39.7765243 L140.090672,28.2094203 L155.613268,28.2094203 L155.613268,5.36270762 L169.018869,5.36270762 L169.018869,28.2094203 L191.589961,28.2094203 L191.589961,39.7765243 L169.018869,39.7765243 L169.018869,86.7483868 L192.293587,86.7483868 L192.293587,98.7375586 L165.769954,98.7375586 C160.269436,98.7375586 155.613268,94.2232684 155.613268,88.7241534" id="Fill-7"></path>
                    <path d="M254.516134,55.0125596 C254.093958,45.2805329 246.611051,38.0870298 237.16411,38.0870298 L235.75074,38.0870298 C226.725974,38.0870298 218.820891,45.1398436 216.84462,55.0125596 L254.516134,55.0125596 Z M236.31364,100.149345 C216.703895,100.149345 202.594669,84.3493291 202.594669,63.3315768 C202.594669,42.4606307 217.126071,26.8013043 236.454365,26.8013043 C254.797584,26.8013043 267.915616,40.6255534 267.915616,60.2302961 L267.915616,65.5887219 L216.00027,65.5887219 C216.703895,78.850214 225.312604,88.8636193 236.172915,88.8636193 L237.023385,88.8636193 C245.625975,88.8636193 252.258413,84.4900183 253.531057,77.8592723 L266.93054,77.8592723 C264.960388,90.9800751 252.117687,100.149345 236.31364,100.149345 L236.31364,100.149345 Z" id="Fill-9"></path>
                    <path d="M294.865708,28.2124787 L324.350688,28.2124787 L324.350688,40.2016506 L298.24923,40.2016506 L298.24923,98.7406171 L284.843629,98.7406171 L284.843629,38.3665732 C284.843629,32.8674582 289.365189,28.2124787 294.865708,28.2124787" id="Fill-11"></path>
                    <path d="M351.156995,98.7393937 L337.751394,98.7393937 L337.751394,28.2112553 L351.156995,28.2112553 L351.156995,38.0839713 C355.390986,31.7346038 362.4456,26.7982458 373.728086,26.7982458 C389.954309,26.7982458 399.125918,36.6770787 399.125918,51.4861527 L399.125918,98.7393937 L385.726436,98.7393937 L385.726436,54.3060549 C385.726436,44.4333389 381.492444,38.0839713 371.617209,38.0839713 L370.203839,38.0839713 C360.328604,38.0839713 351.156995,45.8463484 351.156995,59.2424128 L351.156995,98.7393937 Z" id="Fill-13"></path>
                    <path d="M441.028364,88.8648427 C449.490229,88.8648427 460.075208,81.8120288 460.075208,73.3462054 L460.075208,66.1588193 L442.435615,67.5657119 C434.255201,68.2691582 428.326389,72.2206914 428.326389,78.7107481 C428.326389,84.4912417 433.123281,88.8648427 439.614994,88.8648427 L441.028364,88.8648427 Z M438.207742,100.150568 C424.802141,100.150568 414.926906,91.262677 414.926906,79.2735052 C414.926906,63.1921109 429.176858,58.3964422 440.606188,57.4116174 L460.075208,55.8579186 L460.075208,53.6007735 C460.075208,43.7280575 454.427846,38.0882532 445.256237,38.0882532 L444.552611,38.0882532 C436.935097,38.0882532 430.58411,41.6116016 429.739759,48.6644155 L416.334158,48.6644155 C417.184627,35.6904188 429.036133,26.8025277 444.980905,26.8025277 C463.740181,26.8025277 473.474691,38.6510102 473.474691,53.0380164 L473.474691,98.7375586 L460.497384,98.7375586 L460.497384,87.45795 C457.676762,93.8012006 449.490229,100.150568 438.207742,100.150568 L438.207742,100.150568 Z" id="Fill-15"></path>
                    <path d="M500.280386,88.7241534 L500.280386,39.7765243 L484.763908,39.7765243 L484.763908,28.2094203 L500.280386,28.2094203 L500.280386,5.36270762 L513.685987,5.36270762 L513.685987,28.2094203 L536.257079,28.2094203 L536.257079,39.7765243 L513.685987,39.7765243 L513.685987,86.7483868 L536.966823,86.7483868 L536.966823,98.7375586 L510.44319,98.7375586 C504.936553,98.7375586 500.280386,94.2232684 500.280386,88.7241534" id="Fill-17"></path>
                    <path d="M552.199404,98.7393937 L565.598886,98.7393937 L565.598886,28.2112553 L552.199404,28.2112553 L552.199404,98.7393937 Z M551.495778,15.5186372 L566.30863,15.5186372 L566.30863,-2.84217094e-14 L551.495778,-2.84217094e-14 L551.495778,15.5186372 Z" id="Fill-19"></path>
                    <path d="M642.492948,63.4741011 C642.492948,49.5091627 632.336263,38.0888649 619.921857,38.0888649 L618.508486,38.0888649 C606.09408,38.0888649 595.937395,49.5091627 595.937395,63.4741011 C595.937395,77.4390396 606.09408,88.8654543 618.508486,88.8654543 L619.921857,88.8654543 C632.336263,88.8654543 642.492948,77.4390396 642.492948,63.4741011 M582.531794,63.4741011 C582.531794,42.5970382 598.329722,26.7970224 619.212112,26.7970224 C640.094502,26.7970224 655.898549,42.5970382 655.898549,63.4741011 C655.898549,84.3511641 640.094502,100.15118 619.212112,100.15118 C598.329722,100.15118 582.531794,84.3511641 582.531794,63.4741011" id="Fill-21"></path>
                    <path d="M686.22788,98.7393937 L672.822279,98.7393937 L672.822279,28.2112553 L686.22788,28.2112553 L686.22788,38.0839713 C690.455753,31.7346038 697.516485,26.7982458 708.798972,26.7982458 C725.025194,26.7982458 734.196804,36.6770787 734.196804,51.4861527 L734.196804,98.7393937 L720.791203,98.7393937 L720.791203,54.3060549 C720.791203,44.4333389 716.56333,38.0839713 706.688094,38.0839713 L705.274724,38.0839713 C695.399489,38.0839713 686.22788,45.8463484 686.22788,59.2424128 L686.22788,98.7393937 Z" id="Fill-22"></path>
                    <path d="M776.09619,88.8648427 C784.558055,88.8648427 795.143034,81.8120288 795.143034,73.3462054 L795.143034,66.1588193 L777.50956,67.5657119 C769.323027,68.2691582 763.400333,72.2206914 763.400333,78.7107481 C763.400333,84.4912417 768.197226,88.8648427 774.688938,88.8648427 L776.09619,88.8648427 Z M773.275568,100.150568 C759.869967,100.150568 749.994732,91.262677 749.994732,79.2735052 C749.994732,63.1921109 764.244684,58.3964422 775.674015,57.4116174 L795.143034,55.8579186 L795.143034,53.6007735 C795.143034,43.7280575 789.501791,38.0882532 780.330182,38.0882532 L779.626556,38.0882532 C772.009042,38.0882532 765.651936,41.6116016 764.807585,48.6644155 L751.408102,48.6644155 C752.252453,35.6904188 764.103959,26.8025277 780.048731,26.8025277 C798.808007,26.8025277 808.548635,38.6510102 808.548635,53.0380164 L808.548635,98.7375586 L795.571328,98.7375586 L795.571328,87.45795 C792.744588,93.8012006 784.558055,100.150568 773.275568,100.150568 L773.275568,100.150568 Z" id="Fill-23"></path>
                    <polygon id="Fill-24" points="828.999672 98.7393937 842.405273 98.7393937 842.405273 -2.84217094e-14 828.999672 -2.84217094e-14"></polygon>
                </g>
                <g id="Design-Center-Lockup" transform="translate(0.000000, 142.000000)">
                    <path d="M633.966857,56.2005934 C633.547419,46.5069492 626.119107,39.3418168 616.727339,39.3418168 L615.323133,39.3418168 C606.350803,39.3418168 598.503053,46.3668148 596.539596,56.2005934 L633.966857,56.2005934 Z M615.882384,101.159362 C596.399783,101.159362 582.382037,85.4216607 582.382037,64.4928938 C582.382037,43.6981685 596.819221,28.1006014 616.022196,28.1006014 C634.246482,28.1006014 647.285539,41.8703286 647.285539,61.3977516 L647.285539,66.7350441 L595.70072,66.7350441 C596.399783,79.9442338 604.952675,89.9242396 615.742571,89.9242396 L616.587526,89.9242396 C625.134339,89.9242396 631.723774,85.5678879 632.982089,78.963293 L646.300771,78.963293 C644.343393,92.0262555 631.583962,101.159362 615.882384,101.159362 L615.882384,101.159362 Z" id="Fill-25"></path>
                    <path d="M677.418223,99.7543626 L664.105619,99.7543626 L664.105619,29.5043824 L677.418223,29.5043824 L677.418223,39.3381611 C681.624762,33.0199278 688.633635,28.1030385 699.842969,28.1030385 C715.963985,28.1030385 725.076128,37.9368171 725.076128,52.6874852 L725.076128,99.7543626 L711.757446,99.7543626 L711.757446,55.4962658 C711.757446,45.6624871 707.556985,39.3381611 697.745778,39.3381611 L696.341572,39.3381611 C686.530366,39.3381611 677.418223,47.0699239 677.418223,60.4131551 L677.418223,99.7543626 Z" id="Fill-26"></path>
                    <path d="M752.126853,89.779231 L752.126853,41.0307408 L736.7049,41.0307408 L736.7049,29.5031638 L752.126853,29.5031638 L752.126853,6.74655708 L765.439456,6.74655708 L765.439456,29.5031638 L787.870282,29.5031638 L787.870282,41.0307408 L765.439456,41.0307408 L765.439456,87.8112567 L788.575424,87.8112567 L788.575424,99.753144 L762.217685,99.753144 C756.75283,99.753144 752.126853,95.2566579 752.126853,89.779231" id="Fill-27"></path>
                    <path d="M850.388457,56.2005934 C849.969019,46.5069492 842.540708,39.3418168 833.148939,39.3418168 L831.744733,39.3418168 C822.772403,39.3418168 814.924654,46.3668148 812.961196,56.2005934 L850.388457,56.2005934 Z M832.303984,101.159362 C812.821384,101.159362 798.803638,85.4216607 798.803638,64.4928938 C798.803638,43.6981685 813.240822,28.1006014 832.443797,28.1006014 C850.668083,28.1006014 863.70714,41.8703286 863.70714,61.3977516 L863.70714,66.7350441 L812.12232,66.7350441 C812.821384,79.9442338 821.374276,89.9242396 832.164171,89.9242396 L833.009127,89.9242396 C841.55594,89.9242396 848.145375,85.5678879 849.403689,78.963293 L862.722372,78.963293 C860.764994,92.0262555 848.005562,101.159362 832.303984,101.159362 L832.303984,101.159362 Z" id="Fill-28"></path>
                    <path d="M890.473376,29.505601 L919.773261,29.505601 L919.773261,41.4474883 L893.841039,41.4474883 L893.841039,99.7555812 L880.522356,99.7555812 L880.522356,39.6257412 C880.522356,34.1422215 885.008521,29.505601 890.473376,29.505601" id="Fill-29"></path>
                    <path d="M525.827787,101.158753 C498.005053,101.158753 475.367548,78.469167 475.367548,50.5824229 C475.367548,22.689586 498.005053,0 525.827787,0 C545.255678,0 563.176023,11.3874426 571.461447,28.9956336 L558.969483,34.9056493 C552.945378,22.1168628 539.936715,13.6052217 525.827787,13.6052217 C505.621807,13.6052217 489.184693,30.3299568 489.184693,50.5824229 C489.184693,70.8287962 505.621807,87.5535313 525.827787,87.5535313 C539.9124,87.5535313 552.914984,79.0662613 558.945168,66.3079388 L571.431053,72.2362329 C563.121313,89.8078671 545.225284,101.158753 525.827787,101.158753" id="Fill-30"></path>
                    <path d="M149.837306,56.2005934 C149.417868,46.5069492 141.983478,39.3418168 132.597788,39.3418168 L131.193582,39.3418168 C122.227331,39.3418168 114.373502,46.3668148 112.410045,56.2005934 L149.837306,56.2005934 Z M131.752833,101.159362 C112.270233,101.159362 98.2524863,85.4216607 98.2524863,64.4928938 C98.2524863,43.6981685 112.689671,28.1006014 131.892646,28.1006014 C150.116931,28.1006014 163.14991,41.8703286 163.14991,61.3977516 L163.14991,66.7350441 L111.571169,66.7350441 C112.270233,79.9442338 120.823125,89.9242396 131.61302,89.9242396 L132.457975,89.9242396 C141.004789,89.9242396 147.594223,85.5678879 148.858617,78.963293 L162.171221,78.963293 C160.213842,92.0262555 147.454411,101.159362 131.752833,101.159362 L131.752833,101.159362 Z" id="Fill-31"></path>
                    <path d="M174.505743,77.977478 L187.818347,77.977478 C188.663302,85.8493752 195.112924,89.9193654 203.240299,89.9193654 L204.644505,89.9193654 C211.793191,89.9193654 217.537671,86.4099128 217.537671,80.7862587 C217.537671,76.2958653 215.014963,73.2007231 208.00609,71.7932864 L197.775445,69.8314049 C186.420219,67.5831618 177.308077,61.6792389 177.308077,49.7373516 C177.308077,35.6873555 189.787883,28.1018199 203.79955,28.1018199 C222.163649,28.1018199 231.555417,37.9355986 231.555417,51.2849227 L218.236734,51.2849227 C217.537671,44.9605966 213.051506,39.3430353 204.644505,39.3430353 L203.240299,39.3430353 C195.526284,39.3430353 190.626759,43.4191183 190.626759,48.3360076 C190.626759,52.5461322 193.429093,55.9215432 200.437966,57.3228871 L211.507487,59.5711302 C222.163649,61.6792389 230.856353,67.4430274 230.856353,80.0855867 C230.856353,92.728146 219.501128,101.160581 203.240299,101.160581 C184.596575,101.160581 175.204807,91.3268021 174.505743,77.977478" id="Fill-32"></path>
                    <path d="M248.237508,99.7561904 L261.550111,99.7561904 L261.550111,29.5062102 L248.237508,29.5062102 L248.237508,99.7561904 Z M247.532365,16.8636509 L262.249175,16.8636509 L262.249175,1.40621816 L247.532365,1.40621816 L247.532365,16.8636509 Z" id="Fill-33"></path>
                    <path d="M313.131284,88.5149751 C325.185573,88.5149751 333.319027,78.541062 333.319027,63.9305284 C333.319027,49.4540364 324.905947,39.3399889 313.131284,39.3399889 L311.733156,39.3399889 C299.958493,39.3399889 291.685226,49.4540364 291.685226,63.9305284 C291.685226,78.114566 300.092227,88.5149751 311.733156,88.5149751 L313.131284,88.5149751 Z M282.992521,108.889297 L296.870455,108.889297 C298.414474,115.347665 304.724283,119.423748 313.131284,119.423748 L314.53549,119.423748 C325.605011,119.423748 333.319027,110.717137 333.319027,98.3487537 L333.319027,88.5149751 C329.112487,95.1195699 320.419782,99.7561904 311.167827,99.7561904 C293.229245,99.7561904 278.366544,85.0055224 278.366544,63.9305284 C278.366544,42.8555343 293.229245,28.0987735 311.167827,28.0987735 C321.40455,28.0987735 330.097255,32.7353941 333.319027,39.3399889 L333.319027,29.5062102 L346.637709,29.5062102 L346.637709,99.7561904 C346.637709,117.876177 332.759776,130.664963 312.991471,130.664963 C296.870455,130.664963 284.256915,121.812125 282.992521,108.889297 L282.992521,108.889297 Z" id="Fill-34"></path>
                    <path d="M380.975108,99.7543626 L367.656426,99.7543626 L367.656426,29.5043824 L380.975108,29.5043824 L380.975108,39.3381611 C385.175569,33.0199278 392.190521,28.1030385 403.399855,28.1030385 C419.520871,28.1030385 428.633014,37.9368171 428.633014,52.6874852 L428.633014,99.7543626 L415.314331,99.7543626 L415.314331,55.4962658 C415.314331,45.6624871 411.113871,39.3381611 401.296585,39.3381611 L399.898458,39.3381611 C390.087251,39.3381611 380.975108,47.0699239 380.975108,60.4131551 L380.975108,99.7543626 Z" id="Fill-35"></path>
                    <path d="M36.3999411,87.1105847 C57.4265604,87.1105847 72.1008186,74.4680254 72.1008186,50.5781579 C72.1008186,26.6943832 57.4265604,14.0518239 36.3999411,14.0518239 L14.0116674,14.0518239 L14.0116674,87.1105847 L36.3999411,87.1105847 Z M0,1.40926456 L37.7980684,1.40926456 C65.1344972,1.40926456 86.1185648,19.6693852 86.1185648,50.5781579 C86.1185648,81.4930234 65.1344972,99.753144 37.7980684,99.753144 L0,99.753144 L0,1.40926456 Z" id="Fill-36"></path>
                </g>
            </g>
        </g>
    </g>
</svg>