<?xml version="1.0" encoding="UTF-8"?>
<svg width="41px" height="15px" viewBox="0 0 41 15" version="1.1" xmlns="http://www.w3.org/2000/svg" xmlns:xlink="http://www.w3.org/1999/xlink">
    <!-- Generator: Sketch 50.2 (55047) - http://www.bohemiancoding.com/sketch -->
    <title>Group 2</title>
    <desc>Created with Sketch.</desc>
    <defs></defs>
    <g id="Symbols" stroke="none" stroke-width="1" fill="none" fill-rule="evenodd">
        <g id="Global-Nav" transform="translate(0.000000, -1.000000)" fill="#FF3250">
            <g id="Group-2" transform="translate(0.000000, 1.000000)">
                <path d="M16.6100936,12.6238385 L13.3837005,12.6238385 L13.3837005,2.02556341 L16.6100936,2.02556341 C19.6407936,2.02556341 21.7557587,3.86005796 21.7557587,7.32489009 C21.7557587,10.7897222 19.6407936,12.6238385 16.6100936,12.6238385 M16.8120546,0.191447133 L11.3630731,0.191447133 L11.3630731,14.458279 L16.8120546,14.458279 C20.7519538,14.458279 23.7762789,11.8086697 23.7762789,7.32489009 C23.7762789,2.84073221 20.7519538,0.191447133 16.8120546,0.191447133" id="Fill-1"></path>
                <path d="M34.20138,12.6441137 C31.293678,12.6441137 28.9280563,10.2577253 28.9280563,7.32484686 C28.9280563,4.39202247 31.293678,2.00563406 34.20138,2.00563406 C36.2317036,2.00563406 38.1036191,3.20274605 38.9702834,5.05523537 L40.768218,4.19888934 C39.5751484,1.6483864 36.9973874,0 34.20138,0 C30.1974104,0 26.9397856,3.28580302 26.9397856,7.32484686 C26.9397856,11.3639447 30.1974104,14.6497478 34.20138,14.6497478 C36.9924589,14.6497478 39.5681842,13.0056844 40.7634502,10.4613959 L38.9664799,9.60278027 C38.0986906,11.4501359 36.2282215,12.6441137 34.20138,12.6441137" id="Fill-3"></path>
                <polygon id="Fill-5" points="6.3391632 0.191447133 0 0.191447133 0 2.02561745 4.31853584 2.02561745 4.31853584 12.6241627 0 12.6241627 0 14.4583331 6.3391632 14.4583331 6.3391632 12.6241627"></polygon>
            </g>
        </g>
    </g>
</svg>