<?xml version="1.0" encoding="UTF-8"?>
<svg width="16px" height="16px" viewBox="0 0 16 16" version="1.1" xmlns="http://www.w3.org/2000/svg" xmlns:xlink="http://www.w3.org/1999/xlink">
    <!-- Generator: Sketch 50.2 (55047) - http://www.bohemiancoding.com/sketch -->
    <title>Page 1</title>
    <desc>Created with Sketch.</desc>
    <defs></defs>
    <g id="Symbols" stroke="none" stroke-width="1" fill="none" fill-rule="evenodd">
        <g id="Global-Nav" transform="translate(-904.000000, -2.000000)" fill="#000000">
            <path d="M915.416667,12.0416667 L920,16.625 L918.625,18 L914.083333,13.4166667 L914.083333,12.7083333 L913.791667,12.4583333 C912.680549,13.4027813 911.388896,13.875 909.916667,13.875 C908.277771,13.875 906.881949,13.298616 905.729167,12.1458347 C904.576383,10.9930507 904,9.59722933 904,7.95833333 C904,6.31943733 904.576383,4.916672 905.729167,3.75 C906.881949,2.583328 908.26388,2 909.875,2 C911.513896,2 912.909717,2.583328 914.062501,3.75 C915.215283,4.916672 915.791667,6.31943733 915.791667,7.95833333 C915.791667,9.43056267 915.319448,10.722216 914.375,11.8333333 L914.666667,12.0416667 L915.416667,12.0416667 Z M909.916667,12.0416667 C911.05556,12.0416667 912.027773,11.6458373 912.833333,10.8541653 C913.638893,10.062496 914.041667,9.09722667 914.041667,7.95833333 C914.041667,6.81944 913.638893,5.84722667 912.833333,5.04166667 C912.027773,4.23610667 911.05556,3.83333333 909.916667,3.83333333 C908.777773,3.83333333 907.812504,4.23610667 907.020832,5.04166667 C906.229163,5.84722667 905.833333,6.81944 905.833333,7.95833333 C905.833333,9.09722667 906.229163,10.062496 907.020832,10.8541653 C907.812504,11.6458373 908.777773,12.0416667 909.916667,12.0416667 Z" id="Page-1"></path>
        </g>
    </g>
</svg>